<?xml version="1.0" encoding="UTF-8" standalone="no"?>
<!-- Created with Inkscape (http://www.inkscape.org/) -->

<svg
   width="200mm"
   height="7.5289998mm"
   viewBox="0 0 200 7.5289998"
   version="1.1"
   id="svg1"
   inkscape:version="1.4 (e7c3feb100, 2024-10-09)"
   sodipodi:docname="compass.svg"
   xmlns:inkscape="http://www.inkscape.org/namespaces/inkscape"
   xmlns:sodipodi="http://sodipodi.sourceforge.net/DTD/sodipodi-0.dtd"
   xmlns="http://www.w3.org/2000/svg"
   xmlns:svg="http://www.w3.org/2000/svg">
  <sodipodi:namedview
     id="namedview1"
     pagecolor="#ffffff"
     bordercolor="#000000"
     borderopacity="0.25"
     inkscape:showpageshadow="2"
     inkscape:pageopacity="0.0"
     inkscape:pagecheckerboard="0"
     inkscape:deskcolor="#d1d1d1"
     inkscape:document-units="mm"
     showguides="true"
     inkscape:zoom="4"
     inkscape:cx="455.625"
     inkscape:cy="20.5"
     inkscape:window-width="1920"
     inkscape:window-height="1043"
     inkscape:window-x="1920"
     inkscape:window-y="0"
     inkscape:window-maximized="1"
     inkscape:current-layer="layer1">
    <sodipodi:guide
       position="-1.4552083,6.3383749"
       orientation="0,1"
       id="guide1"
       inkscape:locked="false"
       inkscape:label=""
       inkscape:color="rgb(0,134,229)" />
    <sodipodi:guide
       position="200,284.57516"
       orientation="-1,0"
       id="guide3"
       inkscape:locked="false"
       inkscape:label=""
       inkscape:color="rgb(0,134,229)" />
    <sodipodi:guide
       position="0,359.44464"
       orientation="-1,0"
       id="guide4"
       inkscape:locked="false"
       inkscape:label=""
       inkscape:color="rgb(0,134,229)" />
    <sodipodi:guide
       position="25.2,367.14265"
       orientation="-1,0"
       id="guide5"
       inkscape:locked="false"
       inkscape:label=""
       inkscape:color="rgb(0,134,229)" />
    <sodipodi:guide
       position="75.200003,352.2822"
       orientation="-1,0"
       id="guide6"
       inkscape:locked="false"
       inkscape:label=""
       inkscape:color="rgb(0,134,229)" />
    <sodipodi:guide
       position="125.2,345.71755"
       orientation="-1,0"
       id="guide7"
       inkscape:locked="false"
       inkscape:label=""
       inkscape:color="rgb(0,134,229)" />
    <sodipodi:guide
       position="175.20001,347.13945"
       orientation="-1,0"
       id="guide8"
       inkscape:locked="false"
       inkscape:label=""
       inkscape:color="rgb(0,134,229)" />
    <sodipodi:guide
       position="37.807079,299.79969"
       orientation="0,-1"
       id="guide9"
       inkscape:locked="false" />
    <sodipodi:guide
       position="44.757771,289.52539"
       orientation="0,-1"
       id="guide10"
       inkscape:locked="false" />
    <sodipodi:guide
       position="22.065675,293.79968"
       orientation="0,1"
       id="guide11"
       inkscape:locked="false"
       inkscape:label=""
       inkscape:color="rgb(0,134,229)" />
    <sodipodi:guide
       position="-5.3537949,296.79968"
       orientation="0,1"
       id="guide12"
       inkscape:locked="false"
       inkscape:label=""
       inkscape:color="rgb(0,134,229)" />
    <sodipodi:guide
       position="31.45,22.356211"
       orientation="-1,0"
       id="guide27"
       inkscape:locked="false"
       inkscape:label=""
       inkscape:color="rgb(0,134,229)" />
    <sodipodi:guide
       position="37.7,17.35661"
       orientation="-1,0"
       id="guide28"
       inkscape:locked="false"
       inkscape:label=""
       inkscape:color="rgb(0,134,229)" />
    <sodipodi:guide
       position="31.001968,6.9025014"
       orientation="0,-1"
       id="guide29"
       inkscape:locked="false" />
  </sodipodi:namedview>
  <defs
     id="defs1" />
  <g
     inkscape:label="Layer 1"
     inkscape:groupmode="layer"
     id="layer1"
     transform="translate(0.2,-2.8000008)">
    <path
       style="fill:none;stroke:#000000;stroke-width:0.2;stroke-linecap:butt;stroke-dasharray:none;stroke-opacity:1"
       d="m -0.95712446,3.9906257 202.06705446,0"
       id="path9"
       sodipodi:nodetypes="cc" />
    <path
       style="font-weight:bold;font-size:2.82222px;line-height:1;font-family:Caveat;-inkscape-font-specification:'Caveat Bold';text-align:center;letter-spacing:0.224896px;text-anchor:middle;stroke-width:0.5;stroke-linecap:square"
       d="m 24.80853,8.7005598 q -0.08749,-0.00564 -0.174978,-0.064911 -0.08749,-0.056444 -0.160867,-0.1072443 -0.04798,-0.047978 -0.07338,-0.1016 -0.0254,-0.056444 -0.04233,-0.1467554 -0.01129,-0.053622 0,-0.141111 0.01129,-0.087489 0.03669,-0.1749777 0.0254,-0.090311 0.04798,-0.141111 0.03387,-0.079022 0.08467,-0.1693332 0.05362,-0.093133 0.104422,-0.1749776 0.05362,-0.084667 0.08467,-0.1354666 0.01976,-0.019755 0.01693,-0.019755 0,-0.00282 0,-0.00282 0,-0.014111 0.02822,-0.070555 0.03104,-0.059267 0.05362,-0.1044222 0.04233,-0.045155 0.04798,-0.073378 0.0056,-0.028222 -0.0085,-0.045155 -0.0056,-0.011289 0.02258,-0.047978 0.03104,-0.036689 0.08467,-0.081844 0.05362,-0.047978 0.118534,-0.084667 0.06773,-0.053622 0.129822,-0.056444 0.06491,-0.00564 0.0762,0.0254 0,0.00847 0.03104,0.00564 0.03387,-0.00564 0.0762,-0.014111 0.04516,-0.011289 0.07902,-0.016933 0.01411,-0.016933 0.06491,-0.0254 0.05362,-0.011289 0.124178,-0.019756 0.03669,0.00282 0.08184,0.00282 0.04516,-0.00282 0.07902,-0.00564 0.03669,-0.00282 0.03669,-0.00282 0.01976,-0.00564 0.05645,0.0254 0.03951,0.028222 0.06209,0.079022 0.01975,0.0508 -0.03387,0.087489 -0.05362,0.036689 -0.169333,0.0508 -0.08467,0.011289 -0.132645,0.019756 -0.04515,0.00564 -0.09878,0.016933 -0.0508,0.00847 -0.149578,0.031044 -0.07055,0.014111 -0.118533,0.022578 -0.04798,0.00847 -0.08467,0.033867 -0.03387,0.0254 -0.0762,0.090311 -0.01975,0.014111 -0.0508,0.073378 -0.03104,0.059267 -0.06209,0.1185332 -0.07902,0.1100666 -0.118534,0.1636888 -0.03669,0.0508 -0.0254,0.064911 0,0 0.03951,0.00847 0.03951,0.00847 0.0508,0.00847 0.02822,-0.014111 0.06773,-0.019756 0.04233,-0.00564 0.06773,-0.011289 0.174978,-0.045155 0.256822,-0.064911 0.08467,-0.022578 0.118533,-0.031045 0.03669,-0.00847 0.06491,-0.011289 0.03951,-0.031045 0.07902,0.00564 0.04233,0.033867 0.05927,0.081844 0.01976,0.056444 0,0.087489 -0.01976,0.031044 -0.08749,0.0508 -0.06491,0.019756 -0.186266,0.047978 -0.121356,0.0254 -0.3048,0.0762 -0.155222,0.045155 -0.251178,0.053622 -0.09596,0.00847 -0.09031,-0.047978 -0.01975,-0.011289 -0.04516,0.022578 -0.02258,0.031044 -0.04233,0.087489 -0.01975,0.056444 -0.03669,0.1213554 -0.01411,0.064911 -0.01693,0.1213555 -0.0028,0.056444 0.0085,0.087489 0.02258,0.064911 0.07055,0.1128888 0.0508,0.045156 0.146756,0.073378 0.05644,0.00282 0.110066,0.00847 0.05362,0.00564 0.121356,-0.022578 0.166511,-0.028222 0.231422,-0.059267 0.06491,-0.031044 0.07902,-0.042333 0.02258,-0.011289 0.02822,-0.022578 0.0085,-0.011289 0.02258,-0.011289 -0.0085,0.014111 0.0056,0 0.01411,-0.014111 0.04515,-0.039511 0.05927,-0.0508 0.118533,-0.062089 0.05927,-0.011289 0.09878,0 0.03951,0.00847 0.04233,0.022578 0.01693,0.028222 -0.01693,0.090311 -0.03387,0.059267 -0.104422,0.1269999 -0.06773,0.067733 -0.160867,0.1213554 -0.149577,0.079022 -0.324555,0.1100666 -0.174978,0.033867 -0.313266,0.036689 z"
       id="text9"
       aria-label="E" />
    <path
       style="font-weight:bold;font-size:2.82222px;line-height:1;font-family:Caveat;-inkscape-font-specification:'Caveat Bold';text-align:center;letter-spacing:0.224896px;text-anchor:middle;stroke-width:0.5;stroke-linecap:square"
       d="m 74.93976,8.7739375 q -0.0508,-0.014111 -0.08184,-0.0254 -0.03105,-0.00847 -0.03105,-0.00847 0.0056,-0.014111 -0.0056,-0.0254 -0.0085,-0.011289 -0.03951,-0.014111 -0.04233,-0.028222 -0.08749,-0.079022 -0.04515,-0.0508 -0.07902,-0.1044221 -0.03387,-0.053622 -0.04516,-0.079022 -0.01976,-0.042333 0.0028,-0.0508 0.02258,-0.011289 0.05362,-0.0254 0.03104,-0.022578 0.06491,-0.033867 0.03669,-0.011289 0.05927,0.036689 0.03669,0.064911 0.112889,0.1100666 0.07902,0.045155 0.1778,0.053622 0.1016,0.00847 0.2032,-0.033867 0.06773,-0.031044 0.07338,-0.084667 0.0056,-0.056444 -0.04233,-0.1298221 -0.0085,-0.022578 -0.0254,-0.036689 -0.01411,-0.014111 -0.04515,-0.036689 -0.02822,-0.022578 -0.08184,-0.073378 -0.04233,-0.019756 -0.07902,-0.036689 -0.03387,-0.016933 -0.07338,-0.036689 -0.04516,-0.022578 -0.1016,-0.062089 -0.05644,-0.042333 -0.104422,-0.090311 -0.04798,-0.0508 -0.07338,-0.095955 -0.04516,-0.042333 -0.05644,-0.1157111 -0.01129,-0.0762 0.0028,-0.1608665 0.01693,-0.084667 0.05362,-0.1523999 0.01693,-0.039511 0.06209,-0.1015999 0.04515,-0.064911 0.1016,-0.1326444 0.05644,-0.067733 0.107244,-0.1213554 0.05362,-0.056444 0.08467,-0.0762 0.02258,-0.022578 0.04798,-0.045155 0.0254,-0.0254 0.0254,-0.0254 0.0028,-0.014111 0.0085,-0.014111 0.0085,0 0.0085,0 0.01411,-0.00847 0.06209,-0.028222 0.04798,-0.019755 0.104423,-0.073378 0.189088,-0.090311 0.321733,-0.1213555 0.132644,-0.033867 0.208844,-0.033867 v 0 0 q 0.07056,0.00282 0.138289,0.039511 0.06773,0.033867 0.115711,0.087489 0.0508,0.053622 0.05927,0.1213555 0.01976,0.067733 -0.01976,0.1636887 -0.03669,0.093133 -0.104422,0.1777999 -0.06491,0.081844 -0.135467,0.1213555 -0.07902,0.033867 -0.135466,0.00847 -0.05362,-0.0254 -0.0508,-0.079022 0,-0.022578 0.01411,-0.053622 0.01693,-0.031044 0.08749,-0.1100666 0.09031,-0.1326443 0.09596,-0.1890888 0.0056,-0.056444 -0.0508,-0.064911 -0.01693,-0.00564 -0.06491,0.00282 -0.04798,0.00847 -0.104422,0.022578 -0.05362,0.011289 -0.09596,0.0254 -0.03951,0.014111 -0.03951,0.019756 0,0 0,0.00847 0,0.00847 -0.01129,0.00564 -0.0056,0 -0.03951,0.019756 -0.03104,0.016933 -0.0762,0.045156 -0.04515,0.028222 -0.09031,0.059267 -0.04233,0.028222 -0.07338,0.0508 -0.03105,0.022578 -0.03387,0.028222 -0.0056,0.031045 -0.06491,0.056444 -0.05644,0.033867 -0.09878,0.095955 -0.04233,0.062089 -0.09878,0.1580443 -0.04798,0.064911 -0.06773,0.1411111 -0.01976,0.073378 0,0.1185332 0.01411,0.045155 0.0762,0.090311 0.06491,0.042333 0.174978,0.1072444 0.09596,0.053622 0.180622,0.1128888 0.08467,0.059267 0.143933,0.115711 0.05927,0.053622 0.0762,0.090311 0.03387,0.047978 0.03951,0.1100666 0.0085,0.062089 0,0.1213554 -0.0056,0.056444 -0.01693,0.093133 -0.01976,0.045155 -0.06209,0.095956 -0.03951,0.0508 -0.07338,0.047978 -0.03104,0.00847 -0.04798,0.019756 -0.01411,0.011289 -0.03387,0.019756 -0.01976,0.011289 -0.09313,0.0254 -0.07338,0.016933 -0.160867,0.0254 -0.08749,0.011289 -0.1524,0.00847 z"
       id="text9-5"
       aria-label="S" />
    <path
       style="font-weight:bold;font-size:2.82222px;line-height:1;font-family:Caveat;-inkscape-font-specification:'Caveat Bold';text-align:center;letter-spacing:0.224896px;text-anchor:middle;stroke-width:0.5;stroke-linecap:square"
       d="m 125.29113,8.7654708 q -0.0367,0.00282 -0.0677,-0.016933 -0.0282,-0.016933 -0.0395,-0.045155 -0.0113,-0.014111 -0.0367,-0.062089 -0.0254,-0.045156 -0.031,-0.079022 -0.008,-0.090311 -0.0113,-0.1749776 0,-0.084667 0.008,-0.2370665 0.008,-0.1241777 0.0339,-0.2201332 0.0254,-0.098778 0.0508,-0.166511 0.0254,-0.070555 0.0395,-0.1044221 0.0141,-0.036689 0.006,-0.036689 -0.0113,0 -0.0254,0.022578 -0.0113,0.019756 -0.0282,0.053622 -0.0141,0.033867 -0.0339,0.073378 -0.0169,0.039511 -0.0367,0.0762 -0.0395,0.087489 -0.0931,0.1862665 -0.0508,0.095956 -0.10442,0.1862666 -0.0536,0.090311 -0.0931,0.1580443 -0.0254,0.028222 -0.0593,0.081844 -0.0339,0.0508 -0.0734,0.1072443 -0.0395,0.056444 -0.0818,0.093133 -0.0621,0.059267 -0.127,0.070555 -0.0649,0.014111 -0.12136,-0.014111 -0.0282,-0.00282 -0.0593,-0.031044 -0.031,-0.0254 -0.0508,-0.064911 -0.0169,-0.039511 -0.008,-0.073378 -0.003,-0.039511 0,-0.1213555 0.006,-0.084667 0.0169,-0.1834443 0.0113,-0.1015999 0.0226,-0.1947332 0.0141,-0.093133 0.0254,-0.1552221 0.0254,-0.180622 0.0677,-0.3697108 0.0452,-0.1890887 0.0819,-0.3809997 0.0226,-0.056444 0.0395,-0.1269999 0.0198,-0.073378 0.0395,-0.1354666 0.003,-0.062089 0.0452,-0.0762 0.0423,-0.016933 0.0903,-0.00564 0.0508,0.011289 0.0706,0.039511 0.0282,0.028222 0.0536,0.087489 0.0254,0.059267 -0.0141,0.1495776 -0.0564,0.1382888 -0.11007,0.3386664 -0.0508,0.1975554 -0.0931,0.4797774 -0.0113,0.067733 -0.0254,0.1523999 -0.0113,0.081844 -0.0226,0.1580444 -0.008,0.0762 -0.0141,0.1269999 -0.003,0.047978 0.003,0.0508 0.0226,0.00564 0.048,-0.0254 0.0282,-0.031044 0.0593,-0.098778 0.11571,-0.1919109 0.21731,-0.3809997 0.10442,-0.1890887 0.20884,-0.3951108 0.048,-0.081844 0.096,-0.1777999 0.0508,-0.098778 0.096,-0.180622 0.048,-0.084667 0.0931,-0.1636888 0.0451,-0.079022 0.079,-0.1326444 0.0339,-0.056444 0.0508,-0.062089 0.0762,0 0.11289,0.039511 0.0395,0.039511 0.0621,0.095955 0.006,0.014111 0.006,0.047978 0.003,0.033867 -0.008,0.059267 -0.003,0.019756 -0.0254,0.081844 -0.0198,0.062089 -0.0367,0.1382888 -0.0282,0.0762 -0.0508,0.1523999 -0.0198,0.073378 -0.0282,0.1213554 -0.0226,0.1213555 -0.0564,0.2652887 -0.0339,0.1439333 -0.0593,0.2878665 -0.0226,0.141111 -0.0254,0.2511776 -0.003,0.079022 0,0.1044221 0.006,0.022578 0.0169,0.047978 0.006,0.022578 0.0254,0.011289 0.0198,-0.011289 0.0395,-0.039511 0.0395,-0.059267 0.0593,-0.1016 0.0226,-0.042333 0.0452,-0.090311 0.0226,-0.0508 0.0621,-0.1269999 0.0706,-0.1298221 0.14393,-0.2850442 0.0762,-0.1552221 0.14394,-0.307622 0.0705,-0.1523999 0.12135,-0.2709332 0.0536,-0.1523998 0.0903,-0.2455331 0.0367,-0.095955 0.0677,-0.1467555 0.031,-0.0508 0.0593,-0.067733 0.0141,-0.011289 0.0593,-0.011289 0.048,0 0.0734,0.022578 0.0113,0.011289 0.0395,0.036689 0.0282,0.0254 0.0254,0.059267 -0.0141,0.045156 -0.0536,0.1467555 -0.0367,0.1015999 -0.0875,0.2257776 -0.048,0.1213554 -0.096,0.2342442 -0.0451,0.1100666 -0.0762,0.1749777 -0.031,0.059267 -0.0593,0.1015999 -0.0282,0.042333 -0.0282,0.064911 0,0.011289 -0.0282,0.070555 -0.0282,0.056444 -0.0734,0.1382888 -0.0423,0.081844 -0.0931,0.1693332 -0.0508,0.087489 -0.096,0.1608665 -0.0451,0.073378 -0.0762,0.1128888 -0.0706,0.087489 -0.1524,0.1467555 -0.079,0.062089 -0.14111,0.093133 -0.0621,0.031044 -0.0818,0.031044 z"
       id="text9-5-9"
       aria-label="W" />
    <path
       style="font-weight:bold;font-size:2.82222px;line-height:1;font-family:Caveat;-inkscape-font-specification:'Caveat Bold';text-align:center;letter-spacing:0.224896px;text-anchor:middle;stroke-width:0.5;stroke-linecap:square"
       d="m 174.32453,8.8303819 q -0.0565,-0.031044 -0.0762,-0.073378 -0.0198,-0.042333 -0.0169,-0.093133 0.006,-0.0508 0.0198,-0.1044221 0.0226,-0.090311 0.048,-0.1495777 0.0282,-0.062089 0.0536,-0.1269999 0.0282,-0.067733 0.048,-0.1721554 0.0451,-0.1044222 0.079,-0.1975554 0.0367,-0.093133 0.0564,-0.1523999 0.0198,-0.059267 0.0198,-0.059267 0.003,-0.011289 0.0226,-0.059267 0.0226,-0.047978 0.0536,-0.1157111 0.0339,-0.070555 0.0649,-0.141111 0.048,-0.1354665 0.0903,-0.2285998 0.0423,-0.095955 0.0847,-0.1721554 0.0452,-0.0762 0.0959,-0.1523999 0.0339,-0.059267 0.096,-0.070556 0.0621,-0.011289 0.11853,0.014111 0.0565,0.022578 0.0734,0.079022 0.0141,0.028222 0.0226,0.064911 0.0113,0.036689 0.0198,0.1100666 0.0113,0.070556 0.0141,0.2060221 0.006,0.1608665 0.006,0.2963331 0.003,0.1326443 0.0113,0.2455331 0.0113,0.1128888 0.0367,0.2060221 0.008,0.0508 0.0169,0.1241777 0.008,0.070555 0.0169,0.141111 0.0113,0.070556 0.0226,0.1185332 0.0113,0.045156 0.0226,0.045156 0.0141,0 0.031,-0.022578 0.0198,-0.0254 0.0508,-0.1044222 0.031,-0.079022 0.079,-0.2427109 0.048,-0.1636888 0.11571,-0.4402663 0.0141,-0.047978 0.0367,-0.1552221 0.0254,-0.1072444 0.0367,-0.217311 0.0198,-0.070555 0.0395,-0.1552221 0.0198,-0.084667 0.0339,-0.1495776 0.0169,-0.064911 0.0169,-0.073378 0,-0.019755 0,-0.033867 0.003,-0.014111 0,-0.028222 0.0141,0 0.0254,-0.036689 0.0113,-0.039511 0.0113,-0.067733 0,-0.047978 0.0113,-0.0762 0.0141,-0.031044 0.0282,-0.045156 0.031,-0.056444 0.079,-0.056444 0.0508,-0.00282 0.0931,0.028222 0.0423,0.028222 0.0508,0.070555 0.006,0.031044 -0.0169,0.141111 -0.0198,0.1072443 -0.0621,0.2906887 0,0.031044 -0.0169,0.1015999 -0.0169,0.070556 -0.0367,0.1495776 -0.0169,0.079022 -0.0254,0.1354666 -0.0113,0.073378 -0.0254,0.1382888 -0.0141,0.062089 -0.0282,0.059267 -0.0734,0.3189109 -0.15522,0.5446885 -0.079,0.2229554 -0.14111,0.3640664 -0.0677,0.1552221 -0.17498,0.1975554 -0.10442,0.045155 -0.19473,-0.070556 -0.0536,-0.073378 -0.0903,-0.1439332 -0.0367,-0.070556 -0.0593,-0.166511 -0.0226,-0.095956 -0.0395,-0.242711 -0.0169,-0.1185332 -0.031,-0.231422 -0.0113,-0.115711 -0.0169,-0.2342443 -0.006,-0.1213554 -0.003,-0.256822 0.003,-0.1608665 -0.0141,-0.1890887 -0.0141,-0.028222 -0.0423,0.031044 -0.0282,0.059267 -0.0649,0.1608665 -0.0198,0.056444 -0.048,0.1298221 -0.0254,0.070556 -0.0536,0.1411111 -0.0282,0.070556 -0.048,0.1213554 -0.0198,0.0508 -0.0254,0.064911 -0.0169,0.033867 -0.0395,0.090311 -0.0226,0.053622 -0.0367,0.115711 -0.1016,0.2652887 -0.1524,0.4571997 -0.048,0.1890887 -0.0706,0.2511776 -0.0282,0.079022 -0.0536,0.095955 -0.0226,0.016933 -0.0931,-0.022578 z"
       id="text9-5-9-9"
       aria-label="N" />
    <path
       style="fill:none;fill-opacity:1;stroke:#000000;stroke-width:0.2;stroke-linecap:round;stroke-dasharray:none;stroke-opacity:1"
       d="m 25,6.0000008 v -3"
       id="path12"
       sodipodi:nodetypes="cc" />
    <path
       style="fill:none;fill-opacity:1;stroke:#000000;stroke-width:0.1;stroke-linecap:round;stroke-dasharray:none;stroke-opacity:1"
       d="m 31.25,5.3521859 0,-1.9256867"
       id="path12-9"
       sodipodi:nodetypes="cc" />
    <path
       style="fill:none;fill-opacity:1;stroke:#000000;stroke-width:0.1;stroke-linecap:round;stroke-dasharray:none;stroke-opacity:1"
       d="M 37.5,5.3521859 V 3.4264992"
       id="path12-9-7"
       sodipodi:nodetypes="cc" />
    <path
       style="fill:none;fill-opacity:1;stroke:#000000;stroke-width:0.1;stroke-linecap:round;stroke-dasharray:none;stroke-opacity:1"
       d="M 43.75,5.3521859 V 3.4264992"
       id="path12-9-7-2"
       sodipodi:nodetypes="cc" />
    <path
       style="fill:none;fill-opacity:1;stroke:#000000;stroke-width:0.1;stroke-linecap:round;stroke-dasharray:none;stroke-opacity:1"
       d="M 50,5.3521859 V 3.4264992"
       id="path12-9-7-1"
       sodipodi:nodetypes="cc" />
    <path
       style="fill:none;fill-opacity:1;stroke:#000000;stroke-width:0.1;stroke-linecap:round;stroke-dasharray:none;stroke-opacity:1"
       d="M 56.25,5.3521859 V 3.4264992"
       id="path12-9-7-2-9"
       sodipodi:nodetypes="cc" />
    <path
       style="fill:none;fill-opacity:1;stroke:#000000;stroke-width:0.1;stroke-linecap:round;stroke-dasharray:none;stroke-opacity:1"
       d="M 62.5,5.3521859 V 3.4264992"
       id="path12-9-7-17"
       sodipodi:nodetypes="cc" />
    <path
       style="fill:none;fill-opacity:1;stroke:#000000;stroke-width:0.1;stroke-linecap:round;stroke-dasharray:none;stroke-opacity:1"
       d="M 68.75,5.3521859 V 3.4264992"
       id="path12-9-7-2-7"
       sodipodi:nodetypes="cc" />
    <path
       style="fill:none;fill-opacity:1;stroke:#000000;stroke-width:0.1;stroke-linecap:round;stroke-dasharray:none;stroke-opacity:1"
       d="M 75,5.3521859 V 3.4264992"
       id="path12-9-7-1-1"
       sodipodi:nodetypes="cc" />
    <path
       style="fill:none;fill-opacity:1;stroke:#000000;stroke-width:0.1;stroke-linecap:round;stroke-dasharray:none;stroke-opacity:1"
       d="M 81.25,5.3521859 V 3.4264992"
       id="path12-9-7-2-9-1"
       sodipodi:nodetypes="cc" />
    <path
       style="fill:none;fill-opacity:1;stroke:#000000;stroke-width:0.1;stroke-linecap:round;stroke-dasharray:none;stroke-opacity:1"
       d="M 87.5,5.3521859 V 3.4264992"
       id="path12-9-7-7"
       sodipodi:nodetypes="cc" />
    <path
       style="fill:none;fill-opacity:1;stroke:#000000;stroke-width:0.1;stroke-linecap:round;stroke-dasharray:none;stroke-opacity:1"
       d="M 93.75,5.3521859 V 3.4264992"
       id="path12-9-7-2-3"
       sodipodi:nodetypes="cc" />
    <path
       style="fill:none;fill-opacity:1;stroke:#000000;stroke-width:0.1;stroke-linecap:round;stroke-dasharray:none;stroke-opacity:1"
       d="M 100,5.3521859 V 3.4264992"
       id="path12-9-7-1-6"
       sodipodi:nodetypes="cc" />
    <path
       style="fill:none;fill-opacity:1;stroke:#000000;stroke-width:0.1;stroke-linecap:round;stroke-dasharray:none;stroke-opacity:1"
       d="M 106.25,5.3521859 V 3.4264992"
       id="path12-9-7-2-9-5"
       sodipodi:nodetypes="cc" />
    <path
       style="fill:none;fill-opacity:1;stroke:#000000;stroke-width:0.1;stroke-linecap:round;stroke-dasharray:none;stroke-opacity:1"
       d="M 112.5,5.3521859 V 3.4264992"
       id="path12-9-7-17-6"
       sodipodi:nodetypes="cc" />
    <path
       style="fill:none;fill-opacity:1;stroke:#000000;stroke-width:0.1;stroke-linecap:round;stroke-dasharray:none;stroke-opacity:1"
       d="M 118.75,5.3521859 V 3.4264992"
       id="path12-9-7-2-7-3"
       sodipodi:nodetypes="cc" />
    <path
       style="fill:none;fill-opacity:1;stroke:#000000;stroke-width:0.1;stroke-linecap:round;stroke-dasharray:none;stroke-opacity:1"
       d="M 125,5.3521859 V 3.4264992"
       id="path12-9-7-1-1-9"
       sodipodi:nodetypes="cc" />
    <path
       style="fill:none;fill-opacity:1;stroke:#000000;stroke-width:0.1;stroke-linecap:round;stroke-dasharray:none;stroke-opacity:1"
       d="M 131.25,5.3521859 V 3.4264992"
       id="path12-9-7-2-9-1-4"
       sodipodi:nodetypes="cc" />
    <path
       style="fill:none;fill-opacity:1;stroke:#000000;stroke-width:0.1;stroke-linecap:round;stroke-dasharray:none;stroke-opacity:1"
       d="M 137.5,5.3521859 V 3.4264992"
       id="path12-9-7-3"
       sodipodi:nodetypes="cc" />
    <path
       style="fill:none;fill-opacity:1;stroke:#000000;stroke-width:0.1;stroke-linecap:round;stroke-dasharray:none;stroke-opacity:1"
       d="M 143.75,5.3521859 V 3.4264992"
       id="path12-9-7-2-90"
       sodipodi:nodetypes="cc" />
    <path
       style="fill:none;fill-opacity:1;stroke:#000000;stroke-width:0.1;stroke-linecap:round;stroke-dasharray:none;stroke-opacity:1"
       d="M 150,5.3521859 V 3.4264992"
       id="path12-9-7-1-8"
       sodipodi:nodetypes="cc" />
    <path
       style="fill:none;fill-opacity:1;stroke:#000000;stroke-width:0.1;stroke-linecap:round;stroke-dasharray:none;stroke-opacity:1"
       d="M 156.25,5.3521859 V 3.4264992"
       id="path12-9-7-2-9-8"
       sodipodi:nodetypes="cc" />
    <path
       style="fill:none;fill-opacity:1;stroke:#000000;stroke-width:0.1;stroke-linecap:round;stroke-dasharray:none;stroke-opacity:1"
       d="M 162.5,5.3521859 V 3.4264992"
       id="path12-9-7-17-5"
       sodipodi:nodetypes="cc" />
    <path
       style="fill:none;fill-opacity:1;stroke:#000000;stroke-width:0.1;stroke-linecap:round;stroke-dasharray:none;stroke-opacity:1"
       d="M 168.75,5.3521859 V 3.4264992"
       id="path12-9-7-2-7-0"
       sodipodi:nodetypes="cc" />
    <path
       style="fill:none;fill-opacity:1;stroke:#000000;stroke-width:0.1;stroke-linecap:round;stroke-dasharray:none;stroke-opacity:1"
       d="M 175,5.3521859 V 3.4264992"
       id="path12-9-7-1-1-96"
       sodipodi:nodetypes="cc" />
    <path
       style="fill:none;fill-opacity:1;stroke:#000000;stroke-width:0.1;stroke-linecap:round;stroke-dasharray:none;stroke-opacity:1"
       d="M 181.25,5.3521859 V 3.4264992"
       id="path12-9-7-2-9-1-3"
       sodipodi:nodetypes="cc" />
    <path
       style="fill:none;fill-opacity:1;stroke:#000000;stroke-width:0.1;stroke-linecap:round;stroke-dasharray:none;stroke-opacity:1"
       d="M 187.5,5.3521859 V 3.4264992"
       id="path12-9-7-7-8"
       sodipodi:nodetypes="cc" />
    <path
       style="fill:none;fill-opacity:1;stroke:#000000;stroke-width:0.1;stroke-linecap:round;stroke-dasharray:none;stroke-opacity:1"
       d="M 193.75,5.3521859 V 3.4264992"
       id="path12-9-7-2-3-5"
       sodipodi:nodetypes="cc" />
    <path
       style="fill:none;fill-opacity:1;stroke:#000000;stroke-width:0.1;stroke-linecap:round;stroke-dasharray:none;stroke-opacity:1"
       d="M -0.80397135,5.4021861 V 3.4764992"
       id="path12-9-7-1-6-6"
       sodipodi:nodetypes="cc" />
    <path
       style="fill:none;fill-opacity:1;stroke:#000000;stroke-width:0.1;stroke-linecap:round;stroke-dasharray:none;stroke-opacity:1"
       d="M 6.25,5.352186 V 3.4264991"
       id="path12-9-7-2-9-5-1"
       sodipodi:nodetypes="cc" />
    <path
       style="fill:none;fill-opacity:1;stroke:#000000;stroke-width:0.1;stroke-linecap:round;stroke-dasharray:none;stroke-opacity:1"
       d="M 12.5,5.352186 V 3.4264991"
       id="path12-9-7-17-6-1"
       sodipodi:nodetypes="cc" />
    <path
       style="fill:none;fill-opacity:1;stroke:#000000;stroke-width:0.1;stroke-linecap:round;stroke-dasharray:none;stroke-opacity:1"
       d="M 18.75,5.352186 V 3.4264991"
       id="path12-9-7-2-7-3-5"
       sodipodi:nodetypes="cc" />
    <path
       style="fill:none;fill-opacity:1;stroke:#000000;stroke-width:0.1;stroke-linecap:round;stroke-dasharray:none;stroke-opacity:1"
       d="M 25,5.352186 V 3.4264991"
       id="path12-9-7-1-1-9-9"
       sodipodi:nodetypes="cc" />
    <path
       style="fill:none;fill-opacity:1;stroke:#000000;stroke-width:0.2;stroke-linecap:round;stroke-dasharray:none;stroke-opacity:1"
       d="m 75,6.0000008 v -3"
       id="path12-2"
       sodipodi:nodetypes="cc" />
    <path
       style="fill:none;fill-opacity:1;stroke:#000000;stroke-width:0.2;stroke-linecap:round;stroke-dasharray:none;stroke-opacity:1"
       d="m 125,6.0000008 v -3"
       id="path12-2-7"
       sodipodi:nodetypes="cc" />
    <path
       style="fill:none;fill-opacity:1;stroke:#000000;stroke-width:0.2;stroke-linecap:round;stroke-dasharray:none;stroke-opacity:1"
       d="m 175,6.0000008 v -3"
       id="path12-2-7-2"
       sodipodi:nodetypes="cc" />
  </g>
</svg>
