<?xml version="1.0" encoding="UTF-8"?>
<svg width="90.817" height="54.845" version="1.1" viewBox="0 0 90.817 54.845" xmlns="http://www.w3.org/2000/svg">
 <defs>
  <style>.a{fill:#333;}.b{fill:#0070b8;}</style>
 </defs>
 <g transform="translate(-18.21 -15.753)" fill="#0070b8">
  <g transform="translate(30.514,53.458)" display="none">
   <path class="a" transform="translate(-119.47 -212.79)" d="m120.06 227.95-0.6-11.37 0.793-0.042 0.6 11.37z"/>
   <path class="a" transform="translate(-126.75 -214.55)" d="m133.37 228.87a5.765 5.765 0 0 0 1.269-0.191l0.033 0.622a4.085 4.085 0 0 1-1.281 0.254 2.1 2.1 0 0 1-1.684-0.512 2.782 2.782 0 0 1-0.631-1.854l-0.286-5.459-1.252 0.065-0.024-0.451 1.234-0.415 0.289-1.934 0.4-0.021 0.107 2.045 2.481-0.13 0.035 0.669-2.481 0.13 0.281 5.351a2.442 2.442 0 0 0 0.417 1.421 1.243 1.243 0 0 0 1.093 0.41z"/>
   <path class="a" transform="translate(-141.79 -211.27)" d="m151.82 214.44 0.1 0.158a26.007 26.007 0 0 1-1.157 3.812l-0.506 0.026a31.383 31.383 0 0 0 0.651-3.949z"/>
   <path class="a" transform="translate(-145.95 -218.36)" d="m162.01 230.5a2.011 2.011 0 0 1-0.772 1.791 4.206 4.206 0 0 1-2.418 0.739 5.849 5.849 0 0 1-2.718-0.38l-0.043-0.832a5.946 5.946 0 0 0 2.724 0.5 3.555 3.555 0 0 0 1.88-0.516 1.266 1.266 0 0 0 0.591-1.142 1.353 1.353 0 0 0-0.573-1.046 5.689 5.689 0 0 0-1.744-0.766 9.753 9.753 0 0 1-1.822-0.7 2.462 2.462 0 0 1-0.813-0.706 1.876 1.876 0 0 1-0.314-1 1.735 1.735 0 0 1 0.719-1.543 3.878 3.878 0 0 1 2.2-0.669 6.687 6.687 0 0 1 2.624 0.377l-0.251 0.715a6.1 6.1 0 0 0-2.337-0.392 3.351 3.351 0 0 0-1.623 0.428 1.052 1.052 0 0 0-0.557 0.981 1.315 1.315 0 0 0 0.526 1.033 6.579 6.579 0 0 0 1.886 0.79 9.079 9.079 0 0 1 1.7 0.656 2.419 2.419 0 0 1 0.821 0.709 1.837 1.837 0 0 1 0.314 0.973z"/>
   <path class="a" transform="translate(-176.78 -215.97)" d="m209.52 229.45-0.291-5.545a2.763 2.763 0 0 0-0.577-1.779 1.834 1.834 0 0 0-1.507-0.49 2.414 2.414 0 0 0-1.883 0.816 3.378 3.378 0 0 0-0.5 2.28l0.26 4.954-0.786 0.041-0.3-5.778q-0.112-2.139-2.072-2.036a2.312 2.312 0 0 0-1.9 0.876 4.032 4.032 0 0 0-0.477 2.508l0.244 4.666-0.77 0.04-0.443-8.454 0.638-0.033 0.224 1.15h0.047a2.427 2.427 0 0 1 0.944-1.028 2.971 2.971 0 0 1 1.4-0.421 2.435 2.435 0 0 1 2.645 1.366h0.031a2.88 2.88 0 0 1 1.05-1.17 3.187 3.187 0 0 1 1.562-0.472 2.716 2.716 0 0 1 2.115 0.63 3.359 3.359 0 0 1 0.815 2.312l0.29 5.529z"/>
   <path class="a" transform="translate(-210.12 -214.85)" d="m244.5 219.76 0.793-0.042 2.037 4.65q0.931 2.143 1.189 2.893h0.047q0.274-1.02 0.908-3.05l1.543-4.791 0.793-0.042-3.272 10.021a7.677 7.677 0 0 1-0.685 1.658 2.072 2.072 0 0 1-0.694 0.668 2.217 2.217 0 0 1-1 0.263 3.462 3.462 0 0 1-1-0.112l-0.035-0.669a3.663 3.663 0 0 0 0.979 0.074 1.312 1.312 0 0 0 0.69-0.224 1.741 1.741 0 0 0 0.518-0.608 7.6 7.6 0 0 0 0.5-1.274q0.278-0.868 0.357-1.13z"/>
   <path class="a" transform="translate(-241.85 -204.44)" d="m289.67 217.13-0.77 0.04-0.634-12.1 0.77-0.04z"/>
   <path class="a" transform="translate(-251.35 -205.45)" d="m301.38 207.18q-0.039-0.746 0.451-0.772a0.436 0.436 0 0 1 0.388 0.174 0.957 0.957 0 0 1 0.165 0.545 0.977 0.977 0 0 1-0.108 0.559 0.43 0.43 0 0 1-0.366 0.222q-0.49 0.026-0.53-0.728zm1.445 10.756-0.77 0.04-0.443-8.454 0.77-0.04z"/>
   <path class="a" transform="translate(-258.48 -202.91)" d="m315.57 207.3-1.991 0.1 0.408 7.785-0.769 0.04-0.408-7.785-1.571 0.082-0.024-0.451 1.556-0.37-0.034-0.654a3.693 3.693 0 0 1 0.452-2.312 2.24 2.24 0 0 1 1.832-0.825 4.856 4.856 0 0 1 1.411 0.137l-0.144 0.678a4.137 4.137 0 0 0-1.247-0.13 1.46 1.46 0 0 0-1.251 0.6 3.064 3.064 0 0 0-0.286 1.75l0.041 0.786 1.991-0.1z"/>
   <path class="a" transform="translate(-273.46 -211.61)" d="m336 223.68a3.689 3.689 0 0 1-2.933-0.985 4.569 4.569 0 0 1-1.2-3.127 4.966 4.966 0 0 1 0.826-3.291 3.29 3.29 0 0 1 2.619-1.358 2.9 2.9 0 0 1 2.411 0.919 4.308 4.308 0 0 1 1.012 2.785l0.032 0.622-6.089 0.32a4 4 0 0 0 0.952 2.617 2.866 2.866 0 0 0 2.331 0.8 7.051 7.051 0 0 0 1.266-0.168 7.686 7.686 0 0 0 1.366-0.508l0.037 0.7a6.192 6.192 0 0 1-1.3 0.493 7.346 7.346 0 0 1-1.33 0.181zm-0.649-8.076a2.536 2.536 0 0 0-1.918 0.908 3.8 3.8 0 0 0-0.741 2.366l5.226-0.274a3.692 3.692 0 0 0-0.758-2.265 2.108 2.108 0 0 0-1.809-0.739z"/>
   <path class="a" transform="translate(-296.95 -203.47)" d="m365.41 212.13-0.474 0.025-0.668-8.426 0.925-0.049zm-0.749 2.371q-0.04-0.762 0.582-0.795 0.638-0.033 0.678 0.728t-0.6 0.8q-0.619 0.029-0.66-0.733z"/>
  </g>
  <g transform="translate(18.212,15.758)">
   <path class="b" transform="translate(-282.88 -65.809)" d="m373.66 76.992c-0.037-0.613-0.1-1.224-0.181-1.832-0.037-0.266-0.1-0.528-0.143-0.79-0.036-0.21 0.01-0.427-0.03-0.635a6.591 6.591 0 0 0-0.21-0.729 7.843 7.843 0 0 1-0.118-1.215c-0.045-0.28-0.189-0.533-0.238-0.812-0.051-0.3-0.062-0.592-0.139-0.9a9.376 9.376 0 0 0-2.012-3.931c-0.143-0.078-0.337-0.272-0.468-0.295-0.44-0.075-0.839-0.118-0.97 0.29a1.974 1.974 0 0 0 0.023 0.662 3.332 3.332 0 0 0 0.212 0.759c0.051 0.2-0.036 0.382-0.012 0.576 0.027 0.216 0.2 0.476 0.244 0.7 0.079 0.436 0.226 0.792 0.276 1.232 0.066 0.582 0.044 1.172 0.123 1.753a4.4 4.4 0 0 0 0.227 0.913 3.194 3.194 0 0 1 0.254 0.77c0.021 0.23-0.054 0.436-0.02 0.67a8.117 8.117 0 0 1 0.176 1.164c0 0.55-0.155 1.015-0.128 1.622 0.026 0.54 0.054 1.064 0.085 1.6a13.018 13.018 0 0 1 0.028 1.933c-0.056 0.557-0.226 1.08-0.233 1.651 0 0.316 0.012 0.633 0.027 0.949a2.115 2.115 0 0 1-0.344-0.357 3.494 3.494 0 0 0-0.388-0.358 5.121 5.121 0 0 1-0.583-0.921c-0.42-0.7-0.831-1.407-1.193-2.141-0.326-0.659-1.041-4.3-1.917-4.282-0.037 0-0.056-0.019-0.089-0.018-0.172-0.012-0.309 0.2-0.411 0.3a2.215 2.215 0 0 0-0.961 1.027s-0.126 0.355-0.121 0.354c-0.051 0.579 0.556 1.012 0.473 1.613-0.067 0.5-0.694 0.891-0.865 1.364a9.277 9.277 0 0 0-0.127 1.183c-0.134 0.59-0.119 0.324-0.483 0.846a2.45 2.45 0 0 0-0.36 1.035 8.077 8.077 0 0 1-0.078 1.066 3.048 3.048 0 0 0-0.208 0.645 8.268 8.268 0 0 1-0.162 0.857 9.069 9.069 0 0 1-0.489 1.714c-0.1 0.241-0.653 2.031 0.059 1.855a4.8 4.8 0 0 1 0.642-0.232c0.246-0.029 0.508 0.016 0.755-0.018a1.753 1.753 0 0 0 0.609-0.293c0.2-0.127 0.459-0.167 0.65-0.309 0.113-0.084 0.109-0.169 0.15-0.289a2.7 2.7 0 0 1 0.235-0.4 3.81 3.81 0 0 0 0.263-0.589c0.145-0.409 0.241-0.834 0.367-1.25a3.778 3.778 0 0 0 0.067-1.117 0.481 0.481 0 0 1 0.076-0.355 0.913 0.913 0 0 1 0.511-0.278c0.452-0.053 0.869 0.681 1.07 0.987a9.174 9.174 0 0 1 0.548 0.9 7.345 7.345 0 0 0 0.351 0.851 4.2 4.2 0 0 0 0.958 1.191 1.786 1.786 0 0 0 0.957 0.246 4.948 4.948 0 0 0 0.568 0.072c1.093-0.062 1.08-1.665 1.408-2.613 0.3-0.872 0.538-1.774 0.777-2.666a15.638 15.638 0 0 0 0.384-1.963 19.485 19.485 0 0 0 0.128-3.762z"/>
   <path class="b" transform="translate(-124.26 -68.927)" d="m143.72 79.189c0.414 0.092 0.928-1.039 1.056-1.335 0.1-0.233 0.045-0.475 0.42-0.494 1.107-0.056 0.587 2.961 2.269 2.817 0.131 0 0.084-0.215 0.1-0.455 0.052-0.666 0.558-1.083-0.088-1.534-0.982-0.687-0.447-1.465-0.129-2.362a10.7 10.7 0 0 0 0.465-1.666c0.156-0.855 0.442-2.225-0.492-2.84-0.643-0.423-1.463 1.659-1.528 2.03-0.01 0.062-0.131 0.887-0.321 0.806-0.22-0.093-0.156-0.742-0.116-0.966a15.729 15.729 0 0 0 0.266-1.959c0.012-0.255 0.3-0.883 0.179-1.05a0.306 0.306 0 0 0-0.291-0.064 0.951 0.951 0 0 0-0.89 0.953c-0.126 0.5-0.062 1.037-0.227 1.53-0.34 1-1.008 1.912-1.281 2.935-0.285 1.071 0.34 1.863 0.387 2.888 0.01 0.177-0.122 0.725 0.221 0.766z"/>
   <path class="b" transform="translate(-245.07,-94.152)" d="m311.07 118.54c0.4 0.509 0.9 0.382 1.333 0.773a2.1 2.1 0 0 0 2.129 0.888c0.461-0.065 0.8 0.19 1.26 0.2a2.838 2.838 0 0 0 1.031-0.338 2.387 2.387 0 0 1 0.46-0.08c0.22-0.032 0.373-0.218 0.547-0.338 0.191-0.133 0.444-0.12 0.631-0.258a7.792 7.792 0 0 0 1.4-1.571c0.21-0.253 0.811-0.411 0.947-0.978 0.013-0.054 0.172-0.648-0.216-0.533-0.224 0.067-0.451 0.194-0.677 0.238-0.282 0.053-0.574 0.02-0.862 0.074a2.028 2.028 0 0 0-0.585 0.254 1.055 1.055 0 0 1-0.444 0.041 4.035 4.035 0 0 0-1.122 0.171 4.605 4.605 0 0 1-2.472-0.162 2.4 2.4 0 0 1-1.586-1.242 2.166 2.166 0 0 1-0.068-1.287 5.117 5.117 0 0 1 0.425-0.969c0.31 0.282 1.088 0.217 1.484 0.236 0.544 0.027 0.913-0.271 1.484-0.183a7.768 7.768 0 0 0 2.214 0.367c1.351-0.224 2.432-0.119 2.794-0.232 0.052-7e-3 0.124-0.03 0.172-0.033 0.072 0 0.26-0.308 0.3-0.367a0.676 0.676 0 0 0 0.126-0.489 1.424 1.424 0 0 0-0.283-0.519 0.576 0.576 0 0 1-0.139-0.266c-0.453-0.8-0.754-0.3-1.377-0.637-0.106-0.057-0.217-0.172-0.325-0.226a1.838 1.838 0 0 0-0.309-0.079c-0.209-0.079-0.511-0.071-0.714-0.131-2.163-0.636-4.268-0.735-5.015 0a1.15 1.15 0 0 1-0.3-0.156c0.043 0 0.043 0 0.037-0.021a1.083 1.083 0 0 1 0.068-0.391 0.07 0.07 0 0 1 0.01-0.044c0.019-0.234 0.12-0.431 0.156-0.663 7e-3 -0.1-0.041-0.2-6e-3 -0.305a1.887 1.887 0 0 1 0.72-0.612c0.378-0.049 0.756 0.048 1.135 0.011a6.9 6.9 0 0 0 1.183-0.327c0.586-0.163 1.228-0.111 1.827-0.217a7.37 7.37 0 0 1 1.76-0.167 2.308 2.308 0 0 0 0.967-0.242c0.129-0.04 0.48 6e-3 0.644-0.014 0.214-0.027 0.522 0.106 0.5-0.24-0.011-0.136-0.168-0.437-0.2-0.6-0.049-0.232 0.071-0.409-0.062-0.657a2.4 2.4 0 0 0-0.864-0.9c-0.446-0.189-1 0.036-1.459-0.037-0.5-0.081-1.054-0.09-1.167-0.15a4.11 4.11 0 0 0-1.5-0.231c-0.081 6e-3 -0.154 0.011-0.214 0.012a18.543 18.543 0 0 0-1.87 0.194 6.547 6.547 0 0 0-2.472 0.933 7.484 7.484 0 0 0-1.269 1.272c-0.379 0.433-0.511 1.735 0.411 1.414 0.045 0.461-0.367 0.884-0.55 1.276-0.328 0.7-0.458 1.158-0.717 1.716a2.6 2.6 0 0 0-0.23 0.5 10.343 10.343 0 0 1-0.21 1.625 6.233 6.233 0 0 0-0.237 2.13 5.009 5.009 0 0 0 1.366 2.567z"/>
   <path class="b" transform="translate(-217 -95.835)" d="m271.22 110.7c0.185 0.1 0.36 0.219 0.549 0.312a4.1 4.1 0 0 0 0.367 0.229 2.371 2.371 0 0 0 0.4 0.057c0.392 0.076 0.777 0.193 1.182 0.251 0.217 0.031 0.018 0.351 0 0.452-0.025 0.192 0.061 0.386 0.042 0.577a3.226 3.226 0 0 1-0.147 0.733 4.245 4.245 0 0 0-0.157 1.306 5.493 5.493 0 0 0 0.141 1.445 7.379 7.379 0 0 1 0.211 1.094 4.471 4.471 0 0 0 0.122 1.148 2.319 2.319 0 0 0 0.555 0.75c0.1 0.122 0.142 0.29 0.255 0.4a2.68 2.68 0 0 0 0.369 0.268c0.158 0.115 0.272 0.3 0.448 0.393 0.2 0.1 0.328-0.046 0.54-0.019 0.171 0.023 0.334 0.142 0.409 0.116 1.086-0.34 0.492-1.93 0.423-2.636-0.042-0.421 0.073-0.846 0.045-1.273-0.021-0.32-0.205-0.682-0.2-0.982 7e-3 -0.271 0.161-0.546 0.156-0.9s-0.074-0.779-0.075-1.1a7.136 7.136 0 0 1 0.121-1.946c0.738-0.26 1.719-1 2.109-1.04a8.056 8.056 0 0 1 0.943 0.012 1.255 1.255 0 0 0 0.594-0.064 1.181 1.181 0 0 0 0.278-0.4c0.066-0.13 0.26-0.14 0.263-0.342 0-0.174-0.172-0.3-0.3-0.4-0.27-0.2-0.371-0.46-0.559-0.629s-0.542-0.177-0.694-0.317a2.886 2.886 0 0 0-0.914-0.779 1.984 1.984 0 0 0-0.584-0.182 8.255 8.255 0 0 0-1.7 0.193c-0.954 0.075-1.661-0.2-2.526 0.385a8.7 8.7 0 0 0-1.218 1.156 10.348 10.348 0 0 1-1.106 0.941c-0.289 0.193-0.767 0.187-0.578 0.619 0.052 0.1 0.148 0.122 0.236 0.172z"/>
   <path class="b" transform="translate(-180.61 -98.282)" d="m221.01 125.83c0.137 0.08 0.391-0.028 0.553-0.131 0.043-0.038 0.1-0.061 0.13-0.106a17.2 17.2 0 0 0 1.218-1.965c0.217-0.483 0.316-1.009 0.527-1.482a8.142 8.142 0 0 0 0.552-1.129c0.07-0.236 0.09-1.16 0.444-1.155 0.388 8e-3 0.4 0.9 0.49 1.154a12.036 12.036 0 0 0 0.646 1.1 2.972 2.972 0 0 1 0.154 0.559c0.073 0.242 0.176 0.474 0.255 0.713a2.832 2.832 0 0 0 0.229 0.53 2.964 2.964 0 0 0 0.529 0.678c0.193 0.2 0.309 0.44 0.5 0.634a8.867 8.867 0 0 0 0.9 0.6c0.136 0.109 0.22 0.263 0.352 0.368a1.219 1.219 0 0 0 0.379 0.136c0.339 0.128 0.591 0.423 0.948 0.529a1 1 0 0 0 0.772-0.029c0.1-0.048 0.172-0.243 0.235-0.344 0.06-0.076 0.149-0.1 0.2-0.174 0.2-0.262 0.164-1.095 0.22-1.417 0.114-0.666 0.244-1.329 0.315-2 0.042-0.4 0.073-0.8 0.1-1.208 9e-3 -0.16-9e-3 -0.334 6e-3 -0.489 0.013-0.131 0.073-0.253 0.074-0.387a27.454 27.454 0 0 1 0.282-4.2 13.408 13.408 0 0 0 0.184-1.6c0.013-0.293 0.127-0.573 0.144-0.867a4.483 4.483 0 0 0-0.041-0.948 2.093 2.093 0 0 0-0.367-0.91c-0.163-0.235-0.133-0.549-0.277-0.792-0.12-0.2-0.4-0.913-0.715-0.893-0.237 0.015-0.355 0.117-0.36 0.148-0.348 0.768-0.891 1.425-1.255 2.174a2.406 2.406 0 0 0-0.132 1.165 6.339 6.339 0 0 1 0.035 0.657 5.874 5.874 0 0 1-0.151 0.714 5.13 5.13 0 0 0-7e-3 0.747c0 0.1-0.036 0.211-0.034 0.313s0.04 0.217 0.043 0.327a5.446 5.446 0 0 1-0.033 0.788 2.255 2.255 0 0 0-0.027 0.817 3.048 3.048 0 0 1 0.119 0.874 6.474 6.474 0 0 0-0.1 0.831 5.9 5.9 0 0 1-0.033 2.121c-7e-3 0.032-0.032 0-0.056-7e-3a10.344 10.344 0 0 1-0.878-1.935c-0.215-0.46-0.358-0.9-0.583-1.367-0.372-0.767-0.524-1.407-0.826-2.073-0.369-0.811-0.705-1.732-1.014-2.588-0.316-0.88-0.163-2.168-0.951-2.823-0.33-0.274-0.548 0.086-0.875 0.155a0.814 0.814 0 0 0-0.5 0.226c-0.136 0.169-0.089 0.391-0.133 0.591a5.016 5.016 0 0 0-0.26 1.06c-7e-3 0.343 0.124 0.737 0.1 1.087-0.035 0.587-0.343 1.113-0.4 1.7-0.028 0.292-0.026 0.6-0.074 0.889a3.821 3.821 0 0 1-0.171 0.417c-0.034 0.118-0.04 0.248-0.073 0.37-0.141 0.527-0.326 1.038-0.443 1.56-0.036 0.16 0 0.332-0.032 0.49a1.558 1.558 0 0 1-0.2 0.4 0.953 0.953 0 0 0-0.16 0.466 4.152 4.152 0 0 1 0.016 0.773c-0.051 0.244-0.1 0.489-0.153 0.733a17.662 17.662 0 0 0-0.574 3.16 0.593 0.593 0 0 0 0.237 0.265z"/>
   <path class="b" transform="translate(-74.731,-97.698)" d="m77.032 125.86a2.513 2.513 0 0 1 0.258-0.554c0.089-0.176 0.089-0.369 0.163-0.544s0.191-0.353 0.277-0.527a2.647 2.647 0 0 1 0.971-0.937c0.067-0.046 0.479-0.342 0.8-0.535 0.841-0.838 0.938 0.576 1.328 1.154 0.3 0.447 0.731 0.824 1.048 1.263a17.974 17.974 0 0 1 1.159 1.652c0.2 0.352 0.257 0.714 0.591 0.975a1.572 1.572 0 0 0 1.743 0.36 0.8 0.8 0 0 0 0.2-0.272c0.056-0.156-0.022-0.472-0.209-0.512 9e-3 -0.185 9e-3 -0.383 0.025-0.57a2.331 2.331 0 0 0-0.019-1c-0.074-0.2-0.2-0.37-0.275-0.566-0.07-0.178-0.1-0.367-0.16-0.55-0.151-0.439-0.279-0.888-0.453-1.319-0.2-0.483-0.659-0.953-0.921-1.438a13.284 13.284 0 0 0-0.874-1.436c-0.19-0.26-0.606-0.584-0.654-0.919a0.091 0.091 0 0 1 0-0.043 0.1 0.1 0 0 1 0-0.043c0.026-0.252 0.785-0.969 0.954-1.169a21.2 21.2 0 0 1 1.556-1.532 11.834 11.834 0 0 1 1.4-1.225 2.53 2.53 0 0 0 0.609-0.589c0.145-0.2 0.119-0.516 0.281-0.681 0.123-0.126 0.294-0.162 0.427-0.265s0.219-0.262 0.345-0.374a1.664 1.664 0 0 0 0.482-1.016c5e-3 -0.064-0.23-0.308-0.248-0.35-0.173-0.39-0.793-0.207-1.085-0.11a7.556 7.556 0 0 0-1.71 0.865c-0.214 0.138-0.4 0.314-0.612 0.445s-0.441 0.193-0.64 0.328c-0.169 0.115-0.177 0.2-0.257 0.38-0.07 0.161-0.165 0.175-0.312 0.235-0.192 0.078-0.246 0.189-0.4 0.328-0.243 0.224-0.48 0.454-0.709 0.693-0.36 0.376-0.805 0.678-1.132 1.085-0.232 0.294-0.354 0.841-0.79 0.854-0.082-0.015-0.113-0.1-0.175-0.116-0.07-0.034-0.788-0.557-0.8 1.171a1.877 1.877 0 0 1-0.2 0.458c-0.052 0.13-0.1 0.26-0.148 0.389a2.078 2.078 0 0 1-0.436 0.7c-0.141 0.152-0.456 0.534-0.673 0.367-0.231-0.179-0.213-0.75-0.13-0.993a5.329 5.329 0 0 0 0.081-1.8c0-0.752-9e-3 -1.506-0.075-2.257-0.1-1.085-0.235-2.18-0.436-3.251-0.134-0.714 0.127-1.617-0.254-2.252-0.133-0.095-0.455 0.229-0.471 0.244a2.849 2.849 0 0 0-0.671 0.7c-0.389 0.513-0.2 1.248-0.212 1.826-7e-3 0.491-0.175 0.969-0.225 1.456-0.229 2.268-0.585 4.49-0.633 6.777-0.022 1.149 0.242 2.276 0.207 3.42a7.974 7.974 0 0 1-0.079 1.387 4.879 4.879 0 0 0-0.126 0.507 3.312 3.312 0 0 0 0.161 1.191 2.88 2.88 0 0 0 0.182 0.783c0.043 0.059 0.08 0.13 0.126 0.2 0.058 0.134 0.086 0.258 0.235 0.321a0.465 0.465 0 0 0 0.543-0.167c0.056-0.069 0.065-0.134 0.139-0.2s0.194-0.1 0.272-0.183a2.311 2.311 0 0 0 0.481-1.178 8.12 8.12 0 0 1 0.16-1.041z"/>
   <path class="b" transform="translate(-146.18 -96.987)" d="m173.52 121.19a15.649 15.649 0 0 0 0.028 3.672 1.809 1.809 0 0 0 0.077 0.232c0.028 0.109 0.014 0.22 0.125 0.3 0.261 0.2 0.979-0.091 1.236-0.178a2.267 2.267 0 0 0 0.705-0.345c0.247-0.2 0.115-0.472 0.2-0.741a2.831 2.831 0 0 0 0.14-1.816 1.083 1.083 0 0 1-0.14-0.435 9.566 9.566 0 0 1 0.179-1.061 5.2 5.2 0 0 0-0.1-0.819c-0.012-0.216 0.177-0.341 0.195-0.555 0.02-0.24-0.3-1.676 0.35-1.283 0.3 0.183 0.26 0.913 0.343 1.206a8.349 8.349 0 0 0 0.818 1.509 22.612 22.612 0 0 0 0.868 2.143c0.189 0.292 0.589 0.5 0.679 0.849a6.871 6.871 0 0 0 0.777 1.322 3.272 3.272 0 0 0 0.517 0.7 3.983 3.983 0 0 0 1.874 0.909 2.22 2.22 0 0 0 0.768 0.056 3.186 3.186 0 0 0 0.5-0.192c0.144-0.055 0.311-0.027 0.445-0.093 0.277-0.137 0.353-0.5 0.519-0.734a3.5 3.5 0 0 0 0.337-0.571 3.835 3.835 0 0 0 0.321-1.39 12.538 12.538 0 0 0 0-1.4 6.374 6.374 0 0 0-0.064-0.682 1.288 1.288 0 0 1-0.067-0.525c0.02-0.1 0.08-0.165 0.061-0.268a0.1 0.1 0 0 0-0.141-0.05c-0.559 0.288-0.9 2.1-1.3 2.131-0.017 0-0.085 0-0.191-9e-3 -0.439-0.019-0.712-0.442-0.961-0.747-0.19-0.235-0.433-0.409-0.6-0.654-0.313-0.457-0.546-0.974-0.852-1.44a3.943 3.943 0 0 1-0.545-0.816 1.858 1.858 0 0 0-0.17-0.309c-0.066-0.133-0.062-0.274-0.118-0.41a1.249 1.249 0 0 0-0.2-0.311 2.121 2.121 0 0 1-0.345-0.485c-0.074-0.161-0.749-1.353-0.55-1.467a6.391 6.391 0 0 0 1.44-1.009 6.677 6.677 0 0 0 1.766-2.226 2.357 2.357 0 0 0 0.147-1.24 2.665 2.665 0 0 0-1.207-1.62 4.018 4.018 0 0 0-0.953-0.5c-0.175-0.057-0.345-0.012-0.52-0.065-0.277-0.084-0.42-0.239-0.717-0.25s-0.594 0.013-0.89 0a1.785 1.785 0 0 1-0.5-0.16 2.141 2.141 0 0 0-0.852-0.152c-0.316 0.014-0.543 0.148-0.865 0.042-0.2-0.064-0.632-0.517-0.827-0.447-0.063 0.023-0.144 0.028-0.189 0.05a6.136 6.136 0 0 0-1.483 1.422c-0.113 0.349-0.168 0.508-0.175 0.555a2.326 2.326 0 0 0-0.091 0.656c8e-3 0.365 0.079 0.694 0.058 1.063-0.019 0.318-0.076 0.695-0.1 1.022a21.566 21.566 0 0 0 0.187 2.736 32.925 32.925 0 0 1 0.053 4.88zm1.866-8.021c0.042-0.127 0.3-0.454 0.45-0.475 0.353-0.046 0.681-0.172 1.042-0.186 0.263-0.01 0.362-0.166 0.583-0.277a0.56 0.56 0 0 1 0.594 0.125c0.066 0.05 0.365 0.242 0.377 0.329v0.037a1.391 1.391 0 0 0-0.235 0.045c-0.4 0.181-0.494 0.858-0.683 1.127a6.546 6.546 0 0 1-1.234 1.589 0.438 0.438 0 0 1-0.235-0.012 1.2 1.2 0 0 1-0.292-0.209c-0.217-0.383 0.132-0.688 0.127-1.059-9e-3 -0.482-0.287-0.59-0.521-0.979 0.03-2e-3 0.013-0.028 0.027-0.055z"/>
   <path class="b" transform="translate(-104.25 -99.249)" d="m116.44 122.5c-0.017 5e-3 -0.04 0.017-0.059 0.026a2.215 2.215 0 0 0-0.272 0.077c0-0.042-0.048-0.017-0.1-0.037 0 0.023-0.157 0.126-0.185 0.161-0.076 0.073 0.121 0.333 0.163 0.416-0.027 0-0.014 0.023-0.012 0.051 0.092 0.991-0.7 1.806-0.5 2.82 0.048 0.24 0.048 0.61 0.28 0.762 0.2 0.13 0.43-0.092 0.608-0.01 0.276 0.126 0.4 0.576 0.747 0.585 0.656 0.018 1.19-1.093 1.364-1.592 0.123-0.351 0.123-0.73 0.243-1.08a0.885 0.885 0 0 1 0.319-0.492c0.214-0.113 0.426 0.074 0.643 0.1a2.967 2.967 0 0 0 0.657-0.016 13.428 13.428 0 0 1 1.488 0 4.612 4.612 0 0 1 1.1 0.038 0.537 0.537 0 0 0 0.281 0.046c0.1-0.022 0.179-0.09 0.284-0.1a2.592 2.592 0 0 1 0.478 0.032c0.332 0.025 0.664 0.055 1 0.053s0.744-0.243 1.058-0.116c0.2 0.082 0.485 0.823 0.543 1.012 0.084 0.277 0.218 0.917 0.276 1.215a5.726 5.726 0 0 0 0.763 1.6c0.27 0.282 1.312-0.224 1.588-0.459a1.086 1.086 0 0 0 0.357-0.674 9.5 9.5 0 0 0 0-1.33 11.8 11.8 0 0 0-0.242-1.208 1.412 1.412 0 0 1-0.036-0.552c0.048-0.15 0.314-0.2 0.29-0.393-0.04-0.324-0.5-0.252-0.634-0.423-0.246-0.309-0.154-0.591-0.185-0.986a7.766 7.766 0 0 0-0.91-2.818 4.519 4.519 0 0 1-0.393-1.155c-0.029-0.135-0.065-0.267-0.081-0.405a1.3 1.3 0 0 0-0.2-0.722c-0.154-0.213-0.322-0.31-0.407-0.579-0.077-0.242 0.021-0.378 0.042-0.635a2.8 2.8 0 0 0-0.165-0.742 5.408 5.408 0 0 0-0.07-0.56c-0.174-0.632-0.217-2.159-0.956-2.438-0.811-0.307-2.028 1.111-2.456 1.62-0.821 0.974-1.427 2.1-2.188 3.124s-1.556 2.019-2.338 3c-0.289 0.362-0.594 0.734-0.865 1.121-0.181 0.274-0.989 1.685-1.318 1.663zm6.552-4.158a5.972 5.972 0 0 1 0.561-1.086c0.12-0.15 0.24-0.13 0.407-0.167 0.057 0.04 0.161 0.056 0.194 0.114 0.115 0.2 0.166 0.43 0.273 0.634 0.119 0.229 0.024 0.41 0.1 0.642 0.047 0.139 0.139 0.26 0.184 0.394s0.113 0.286 0.151 0.439c0.071 0.286 0.089 0.582 0.145 0.871 0.029 0.151 0.066 0.3 0.1 0.452-0.033 0.166-0.26 0.215-0.446 0.229-0.2-0.086-0.359-0.278-0.578-0.33-0.269-0.062-0.544 0.108-0.813 0.032-0.123-0.035-0.22-0.151-0.333-0.2s-0.809-0.123-0.826-0.276c-0.061-0.453 0.684-1.366 0.881-1.748z"/>
   <path class="b" transform="translate(-79.193 -145.02)" d="m168.34 176.15c-1.132-0.276-3.534-0.048-5.585-0.493a10.242 10.242 0 0 0-1.84-0.261c-1.228-0.038-2.451 0.131-3.678 0.117-1.137-0.012-2.253-0.244-3.382-0.343-1.25-0.111-2.507-0.024-3.757-0.081-2.329-0.1-4.642 0.136-6.981 8e-3 -2.315-0.126-4.576 0.083-6.886 0.086-1.193 0-6.986 0.228-8.3 0.231-3.034 8e-3 -3.765 0.352-6.247 0.371-0.707 6e-3 -1.865-0.076-2.555 0.012-0.743 0.1-1.331 0.065-2.077 0.117-0.784 0.055-6.839 0.568-8.962 0.876s-4.264 0.416-6.388 0.7c-1.585 0.206-2.975 0.5-4.55 0.744-1.269 0.2-2.724 0.34-3.988 0.585-0.526 0.1-1.059 0.2-1.592 0.3-1.284 0.23-2.339 0.3-3.785 0.638-0.615 0.143-1.227 0.2-1.8 0.288-2.989 0.478-5.175 0.843-5.093 1.129 0.216 0.752 1.195 0.737 1.694 0.81a39.691 39.691 0 0 0 4.6-0.252c1.543-0.086 3.132-0.27 4.668-0.418 0.539-0.053 2.2-0.465 2.681-0.436a7.182 7.182 0 0 0 1.852-0.286c1.377-0.276 2.792-0.344 4.186-0.483 5.582-0.551 11.151-1.288 16.763-1.451 2.537-0.073 5.179-0.654 7.7-0.529 2.469 0.121 4.942-0.182 7.423-0.19 2.178-9e-3 4.367-0.238 6.539-0.163 1.1 0.039 2.161-0.29 3.246-0.255 0.556 0.018 1.1 0.138 1.658 0.161 0.514 0.022 1.862 6e-3 2.117 0.019a39.218 39.218 0 0 0 6.015 0.013c0.513-0.156 5.8 0.012 6.7-0.1 1.571-0.193 3.447-0.045 4.578-0.1a31.138 31.138 0 0 1 3.663-0.159 3.957 3.957 0 0 0 1.489-0.229c1.119-0.268 0.688-0.78-0.126-0.976z"/>
  </g>
 </g>
 <g transform="translate(-78.96 -41.177)">
  <path transform="rotate(-1.2824 -1080.2 610.16)" d="m100.98 118.14q-0.208-0.128-0.224-0.256-0.016-0.112 0.08-0.448-0.016-0.208 0.016-0.384 0.048-0.176 0.064-0.24 0.08 0 0.096-0.096t0.016-0.16q0-0.128 0.096-0.432 0.112-0.304 0.192-0.624 0.128-0.32 0.24-0.592 0.128-0.288 0.128-0.352 0-0.128 0.064-0.256 0.064-0.144 0.144-0.272 0.08-0.192 0.112-0.416 0.048-0.24 0.048-0.368 0.096-0.208 0.208-0.448t0.176-0.496q0.096-0.272 0.272-0.784 0.192-0.528 0.4-1.072 0.144-0.304 0.288-0.64t0.256-0.576 0.16-0.24q0 0 0-0.048 0-0.064 0-0.128 0-0.08 0.128-0.304 0.128-0.24 0.24-0.496 0.16-0.24 0.224-0.448 0.064-0.224 0.064-0.224t0.048-0.096q0.064-0.096 0.128-0.16 0.208-0.144 0.384-0.112 0.192 0.032 0.32 0.304 0.128 0.256 0.112 0.432-0.016 0.16-0.144 0.352-0.128 0.288-0.336 0.736-0.208 0.432-0.448 0.944-0.224 0.496-0.432 0.96-0.192 0.448-0.32 0.784-0.112 0.32-0.112 0.4l-0.656 1.616q0 0.032-0.064 0.16-0.048 0.128-0.144 0.384-0.08 0.256-0.208 0.672t-0.304 1.008q-0.32 1.024-0.496 1.6-0.176 0.56-0.288 0.768-0.096 0.224-0.208 0.224-0.064 0-0.144-0.064-0.064-0.048-0.176-0.112zm5.648 0.128q-0.144 0.016-0.4-0.144-0.24-0.144-0.528-0.368-0.272-0.224-0.528-0.464-0.24-0.24-0.384-0.416-0.256-0.368-0.64-0.96-0.384-0.608-0.576-1.296-0.112-0.512-0.224-0.8-0.112-0.304-0.144-0.496l0.016-1.12 0.816 0.256q0.08 0.864 0.24 1.44 0.176 0.56 0.416 0.992 0.192 0.416 0.432 0.832 0.24 0.4 0.512 0.672 0.368 0.4 0.656 0.592t0.432 0.192q0.08 0.016 0.224 0.112 0.16 0.096 0.288 0.208 0.144 0.096 0.16 0.192 0.016 0.048 0.016 0.144 0 0.112-0.032 0.192-0.016 0.096-0.048 0.144-0.048 0.112-0.176 0.192-0.112 0.096-0.528-0.096zm-3.584-5.936 1.168-0.848q0.048-0.048 0.336-0.32 0.304-0.272 0.992-0.784l1.968-1.6q0.4-0.208 0.816-0.528 0.432-0.32 0.656-0.464 0.272-0.192 0.48-0.336t0.272-0.128q0.128-0.064 0.256 0.048 0.144 0.096 0.224 0.272 0.096 0.16 0.08 0.288 0.032 0.16-0.064 0.272t-0.464 0.32q-0.304 0.144-0.544 0.288-0.224 0.144-0.272 0.24 0 0-0.304 0.24-0.288 0.224-0.752 0.544-0.64 0.416-1.104 0.784-0.448 0.368-0.576 0.56-0.064 0-0.128 0.048-0.048 0.048-0.112 0.032 0 0-0.128 0.08-0.112 0.08-0.176 0.16-0.032 0.08-0.144 0.224-0.096 0.144-0.256 0.128-0.112 0.064-0.4 0.272-0.288 0.192-0.608 0.432-0.304 0.24-0.528 0.432t-0.24 0.224zm7.858 5.536q-0.592-0.448-0.752-0.688-0.16-0.256-0.192-0.608-0.032-0.288 0-0.784 0.048-0.496 0.112-0.976t0.112-0.72q0.08-0.08 0.064-0.208 0-0.144 0-0.144-0.016-0.08 0.112-0.416 0.128-0.352 0.24-0.896 0.32-0.96 0.608-1.6 0.304-0.656 0.592-1.12t0.576-0.848q0.656-0.672 1.056-1.008 0.4-0.352 0.896-0.576 0.32-0.192 0.592-0.304t0.448-0.032q0.896 0.192 1.344 0.736 0.448 0.528 0.656 1.648 0.112 0.704 0.128 1.28 0.032 0.56-0.08 1.12-0.112 0.544-0.416 1.2-0.288 0.656-0.816 1.536-0.56 1.104-1.264 1.92-0.688 0.816-1.424 1.28-0.72 0.48-1.408 0.544-0.672 0.064-1.184-0.336zm1.024-0.464q0.368-0.048 0.704-0.224t0.704-0.512q0.368-0.352 0.832-0.88 0.416-0.48 0.672-0.8 0.272-0.336 0.448-0.672 0.192-0.336 0.352-0.816 0.176-0.48 0.4-1.248 0.128-0.48 0.192-0.8t0.08-0.592q0.016-0.288 0-0.656 0-0.368 0-0.944-0.016-0.272-0.112-0.56-0.096-0.304-0.224-0.448-0.16-0.176-0.448-0.24-0.288-0.08-0.64 0.08-0.192 0.08-0.496 0.368-0.304 0.272-0.64 0.64t-0.64 0.752q-0.288 0.384-0.48 0.688-0.176 0.288-0.176 0.4 0 0-0.016 0.08 0 0.08-0.064 0.16-0.208 0.224-0.464 0.8-0.24 0.576-0.464 1.312-0.224 0.72-0.384 1.44-0.144 0.704-0.176 1.232-0.032 0.432-0.032 0.592t0.064 0.256q0.064 0.08 0.208 0.32 0.096 0.16 0.32 0.24 0.24 0.08 0.48 0.032zm15.538 0.496t-0.08-0.112q-0.08-0.096-0.24-0.304-0.08-0.224-0.16-0.704-0.064-0.496-0.016-1.264-0.032-0.24 0-0.768 0.048-0.528 0.128-1.168 0.096-0.656 0.192-1.264 0.112-0.608 0.208-0.976 0.064-1.008 0.128-1.376 0.064-0.384 0.064-0.464-0.016-0.064-0.288 0.304-0.272 0.352-0.608 0.944-0.208 0.336-0.384 0.592-0.16 0.24-0.224 0.32-0.144 0.208-0.272 0.512-0.112 0.288-0.48 0.992-0.64 0.992-1.008 1.488-0.352 0.48-0.576 0.624-0.224 0.128-0.448 0.08-0.464-0.112-0.64-0.384-0.16-0.272-0.192-0.96-0.016-0.432-0.016-0.752t0-0.432q0.064-0.144 0.032-0.32-0.016-0.176 0-0.256-0.016-0.064 0.048-0.24 0.08-0.192 0.096-0.416 0.048-0.304 0.08-0.736 0.048-0.448 0.048-0.8 0.016-0.352-0.032-0.384 0.032 0.064-0.064 0.192-0.08 0.112-0.128 0.192-0.304 0.4-0.704 1.248-0.4 0.832-1.024 2.112-0.048 0.352-0.272 0.912t-0.448 0.992q-0.096 0.256-0.224 0.576-0.128 0.304-0.256 0.576t-0.24 0.432q-0.208 0.576-0.368 0.688-0.144 0.128-0.48-0.096-0.224-0.208-0.304-0.416t0.096-0.512q0.16-0.176 0.32-0.512 0.176-0.336 0.288-0.64 0.128-0.304 0.112-0.352-0.016-0.064 0.048-0.176 0.08-0.128 0.32-0.48-0.016-0.064 0.128-0.448 0.16-0.4 0.432-0.944 0.048-0.08 0.096-0.192t0.032-0.192q0.048-0.064 0.08-0.176 0.048-0.112 0.144-0.176 0.032-0.144 0.128-0.352t0.112-0.352q0.064-0.144 0.112-0.256 0.064-0.112 0.144-0.208 0.064-0.048 0.112-0.16t0.112-0.176q0.064-0.192 0.208-0.448t0.352-0.576 0.432-0.672q0.112-0.176 0.176-0.32 0.064-0.16 0.224-0.4 0 0 0.112-0.176 0.128-0.176 0.256-0.416 0.08-0.112 0.192-0.288 0.112-0.192 0.224-0.336t0.16-0.144q0.096-0.016 0.304 0.128t0.384 0.336 0.176 0.32q0 0.064-0.032 0.304t-0.096 0.56-0.16 0.608q-0.016 0.336-0.096 0.784-0.064 0.448-0.144 0.912t-0.112 0.896q-0.048 0.544-0.176 0.96-0.112 0.416-0.112 0.416 0.032 0.064 0.048 0.16 0.032 0.08 0.032 0.224v0.352l0.608-0.656q0.224-0.352 0.416-0.64 0.208-0.304 0.368-0.56 0-0.08 0.064-0.176 0.08-0.096 0.128-0.256 0.096-0.064 0.176-0.192 0.096-0.128 0.08-0.272 0.16-0.24 0.448-0.64 0.288-0.416 0.624-0.88 0.352-0.48 0.688-0.928t0.592-0.768q0.272-0.336 0.384-0.432 0.224-0.176 0.48-0.192 0.272-0.016 0.528 0.256 0.208 0.224 0.24 0.432 0.032 0.192-0.112 0.56-0.192 0.64-0.384 1.2t-0.176 0.784q-0.064 0.144-0.096 0.352t-0.048 0.336q-0.064 0.144-0.096 0.272-0.016 0.128-0.096 0.192 0 0.08 0.032 0.272 0.048 0.176 0.016 0.368-0.224 1.44-0.304 2.4-0.08 0.944-0.016 1.44 0.08 0.48 0.288 0.544 0.064-0.016 0.064 0.064 0.016 0.08-0.048 0.384 0.016 0.096-0.016 0.224-0.016 0.112-0.048 0.208t-0.064 0.144q-0.144 0.16-0.24 0.176-0.08 0.016-0.496-0.08zm3.746 0.544q-0.08-0.048-0.24-0.08-0.144-0.032-0.256-0.112-0.112-0.064-0.128-0.208-0.016-0.048-0.032-0.096 0-0.048 0.048-0.224 0.048-0.16 0.144-0.544 0.096-0.32 0.16-0.56 0.08-0.24 0.08-0.272 0.064 0.032 0.128-0.032t0.064-0.336q-0.016-0.064 0.032-0.208 0.064-0.144 0.144-0.288 0-0.048 0.032-0.304 0.048-0.256 0.096-0.512 0.224-0.752 0.464-1.328 0.256-0.576 0.384-0.832 0-0.032 0.048-0.176t0.112-0.288q0.064-0.16 0.096-0.208 0.016-0.144 0.08-0.368 0.08-0.24 0.176-0.448 0.112-0.224 0.208-0.304 0-0.096 0.08-0.32t0.192-0.464q0.112-0.256 0.208-0.432t0.112-0.176q0 0 0.016-0.096 0.032-0.096 0.192-0.304 0 0 0.016-0.16 0.032-0.16 0.16-0.256 0.064-0.24 0.08-0.32 0.016-0.096-0.048-0.128-0.144-0.416 0.256-0.432 0.096 0 0.224-0.272 0.08-0.144 0.304-0.176 0.24-0.032 0.704-0.128 0.304-0.048 0.576-0.096t0.272-0.048q0.224 0 0.576 0.032 0.368 0.032 0.576 0.08 0.576 0.272 0.88 0.688t0.352 0.784q0.032 0.192-0.064 0.576-0.08 0.368-0.224 0.784-0.128 0.416-0.304 0.752-0.16 0.32-0.304 0.432 0.08-0.016-0.064 0.176t-0.368 0.4q-0.208 0.192-0.32 0.224 0 0-0.112 0.208-0.112 0.192-0.32 0.304-0.192 0.112-0.416 0.272-0.208 0.144-0.336 0.336 0-0.128-0.08-0.08-0.08 0.032-0.176 0.128-0.096 0.08-0.16 0.112-0.368 0.224-0.72 0.368-0.336 0.128-0.672 0.192-0.08 0.064-0.256 0.08-0.16 0.016-0.32 0.016l-0.544-0.08-0.336 0.912q-0.192 0.64-0.368 1.136-0.16 0.496-0.32 0.992-0.16 0.48-0.352 1.12-0.064 0.432-0.192 0.56t-0.24 0.032zm2.176-5.6q0.592 0 1.024-0.128 0.448-0.128 0.8-0.368 0.368-0.256 0.688-0.56 0.128-0.128 0.352-0.384t0.464-0.544q0.256-0.304 0.432-0.544 0.256-0.352 0.368-0.784 0.112-0.448 0.128-0.816 0.016-0.384-0.08-0.544-0.208-0.304-0.592-0.352-0.368-0.064-0.768 0.032t-0.72 0.272q-0.08 0.032-0.288 0.368-0.192 0.336-0.448 0.848-0.24 0.496-0.496 1.072-0.24 0.56-0.448 1.088-0.208 0.512-0.336 0.88-0.112 0.368-0.08 0.464zm11.074 5.968q-0.064 0-0.144-0.064-0.08-0.048-0.16-0.144-0.112-0.112-0.16-0.272-0.032-0.16-0.032-0.304 0-0.176 0-0.448 0-0.256-0.032-0.56 0-0.464-0.016-0.96t0.048-0.64q-0.048-0.224-0.016-0.48 0.048-0.272 0.048-0.416l-0.064-0.432h-0.88q-0.304 0.048-0.912 0.032-0.592-0.032-1.424-0.08l-0.208 0.336q-0.048 0.064-0.224 0.336-0.16 0.272-0.288 0.608-0.08 0.208-0.192 0.464-0.112 0.24-0.24 0.496-0.112 0.24-0.256 0.448-0.256 0.496-0.4 0.688-0.128 0.176-0.208 0.176-0.144 0-0.256-0.016-0.096-0.016-0.256-0.128-0.32-0.144-0.288-0.448 0.048-0.304 0.368-0.768 0.08-0.112 0.144-0.224t0.064-0.112q0-0.032 0.112-0.288 0.128-0.272 0.288-0.592 0.176-0.32 0.336-0.576 0.16-0.272 0.24-0.304 0.288-0.32-0.048-0.608-0.112-0.048-0.096-0.128 0.016-0.096 0.112-0.176 0.112-0.08 0.256-0.08 0.16-0.08 0.224-0.112 0.08-0.032 0.08-0.096 0-0.032 0.096-0.256 0.112-0.24 0.272-0.544 0.16-0.32 0.32-0.592 0.176-0.288 0.288-0.432 0.176-0.448 0.272-0.592 0.096-0.16 0.16-0.304 0.08-0.08 0.224-0.352t0.304-0.528q0.224-0.224 0.4-0.48 0.192-0.272 0.336-0.448 0.08-0.176 0.224-0.384 0.16-0.208 0.32-0.432 0.304-0.336 0.48-0.416 0.192-0.096 0.512 0.048 0.368 0.16 0.544 0.512t0.224 1.024q0.048 0.368 0.096 0.832 0.064 0.448-0.016 0.672 0 0.288-0.016 0.704 0 0.416 0.048 0.784-0.064 0.304-0.048 0.688 0.016 0.368 0.016 0.512t-0.016 0.464q-0.016 0.304-0.016 0.528-0.016 0.608-0.032 1.008 0 0.4 0 0.768 0.016 0.352 0.016 0.832 0.032 1.264-0.064 1.728-0.096 0.48-0.464 0.528zm-3.248-5.6t0.368-0.032q0.384-0.048 0.832-0.032 0.528-0.048 0.88-0.016 0.352 0.016 0.416-0.016 0.176 0.016 0.24-0.144t0.064-0.416q-0.032-0.352-0.048-0.944-0.016-0.608-0.032-1.216 0-0.624 0.016-1.024 0-0.304-0.032-0.544-0.032-0.256-0.032-0.256-0.032-0.048-0.208 0.128t-0.4 0.448q-0.208 0.272-0.4 0.528-0.176 0.256-0.256 0.384-0.064 0.08-0.24 0.416t-0.4 0.72q-0.592 0.944-0.752 1.44t-0.016 0.576zm8.274 5.136q-0.288-0.08-0.464-0.144-0.176-0.048-0.176-0.048 0.032-0.08-0.032-0.144-0.048-0.064-0.224-0.08-0.24-0.144-0.448-0.368-0.192-0.208-0.32-0.416t-0.192-0.352q-0.112-0.24-0.112-0.288 0.016-0.064 0.192-0.144 0.176-0.128 0.256-0.08 0.096 0.048 0.224 0.32 0.208 0.368 0.704 0.56 0.512 0.192 1.136 0.176 0.64-0.032 1.216-0.288 0.592-0.24 0.736-0.496 0.16-0.272-0.112-0.688-0.048-0.128-0.112-0.208t-0.208-0.208q-0.128-0.128-0.432-0.416-0.24-0.112-0.448-0.208-0.192-0.096-0.416-0.208-0.256-0.128-0.624-0.368-0.352-0.256-0.672-0.56t-0.464-0.56q-0.256-0.24-0.384-0.656-0.128-0.432-0.096-0.912t0.24-0.864q0.096-0.224 0.32-0.544 0.24-0.336 0.528-0.672t0.56-0.608 0.448-0.384q0.128-0.128 0.272-0.256 0.144-0.144 0.144-0.144 0.016-0.08 0.048-0.08 0.048 0 0.048 0 0.08-0.048 0.352-0.16t0.592-0.416q1.072-0.512 1.744-0.752t1.104-0.24v0q0.4 0.016 0.72 0.192 0.336 0.16 0.544 0.432 0.224 0.272 0.272 0.656 0.112 0.384-0.064 0.896-0.176 0.496-0.528 0.944-0.336 0.432-0.736 0.656-0.448 0.192-0.608 0.176-0.144-0.032-0.128-0.336 0-0.128 0.08-0.304 0.096-0.176 0.496-0.624 0.512-0.752 0.624-1.2t-0.208-0.496q-0.096-0.032-0.352 0-0.24 0.032-0.544 0.096-0.288 0.048-0.496 0.112-0.208 0.048-0.208 0.08 0 0 0 0.048t-0.064 0.032q-0.032 0-0.272 0.128t-0.576 0.336-0.672 0.416-0.576 0.368q-0.224 0.144-0.24 0.176-0.032 0.176-0.368 0.32-0.32 0.192-0.592 0.56-0.256 0.368-0.576 0.912-0.272 0.368-0.384 0.8-0.112 0.416 0 0.672 0.08 0.256 0.496 0.656t1.04 0.768q0.544 0.304 0.976 0.608 0.432 0.288 0.704 0.56 0.288 0.272 0.384 0.48 0.192 0.272 0.272 0.56 0.096 0.272 0.096 0.528 0.016 0.256-0.048 0.464-0.112 0.256-0.4 0.528-0.272 0.272-0.464 0.256-0.176 0.048-0.272 0.112-0.08 0.064-0.192 0.112-0.112 0.064-0.48 0.128-0.352 0.064-0.784 0.08-0.432 0.032-0.8 0.016zm6.818 0.016q-0.144-0.064-0.336-0.256-0.336-0.224-0.512-0.512-0.176-0.272-0.208-0.784 0-0.08 0.144-0.256 0.144-0.192 0.368-0.304t0.464 0.064q-0.112 0.336-0.144 0.56-0.016 0.224 0.128 0.368 0.144 0.128 0.56 0.224 0.272 0.064 0.512 0.048 0.256-0.016 0.608-0.08 0.368-0.032 0.64-0.064 0.288-0.032 0.4-0.144 0.448-0.176 0.816-0.448 0.384-0.272 0.512-0.544 0.192-0.256 0.208-0.4t0.016-0.496q-0.016-0.336-0.048-0.512-0.016-0.192-0.112-0.416-0.096-0.24-0.336-0.72 0-0.096-0.24-0.368t-0.464-0.528q-0.112-0.256-0.288-0.576-0.16-0.32-0.384-0.464-0.064-0.096-0.128-0.288t-0.112-0.208q0 0-0.048-0.08-0.032-0.08-0.08-0.192-0.224-0.48-0.048-1.168t0.704-1.296q0.128-0.208 0.384-0.48 0.272-0.288 0.512-0.496 0.256-0.208 0.32-0.208 0 0 0.096-0.032 0.112-0.048 0.272-0.16 0.192-0.048 0.4-0.144 0.224-0.096 0.432-0.096v0q0.288-0.096 0.432-0.128 0.144-0.048 0.288-0.032 0.144 0 0.448 0.032 0.416 0.112 0.656 0.32 0.24 0.192 0.336 0.512l0.112 0.688-0.672 0.496q-0.192 0.064-0.432 0.064t-0.416-0.016q-0.16-0.032-0.16-0.032-0.096 0-0.08-0.096t0.128-0.096q0.048-0.032 0.128-0.144 0.096-0.112 0.256-0.256 0.176-0.304 0.08-0.368-0.08-0.08-0.64-0.016-0.544 0.016-1.072 0.288-0.512 0.256-0.864 0.768-0.416 0.352-0.592 0.72t-0.176 0.64q0.032 0.112 0.096 0.32 0.064 0.192 0.176 0.416 0.672 0.944 0.976 1.328t0.304 0.464q0 0.064 0 0.08 0 0 0 0 0.016 0 0.128 0.208 0.128 0.208 0.24 0.448 0.112 0.224 0.112 0.288 0 0 0.032 0.096 0.048 0.08 0.112 0.24 0.064 0.048 0.112 0.368t0.08 0.672q0.048 0.352 0.048 0.544t-0.096 0.416q-0.096 0.208-0.24 0.416t-0.32 0.4-0.544 0.48q-0.368 0.272-0.784 0.512-0.4 0.256-0.752 0.336-0.24 0.096-0.624 0.144-0.368 0.064-0.768 0.08-0.384 0.016-0.688-0.032-0.288-0.032-0.368-0.112z" stroke-linecap="square" stroke-width="15.118" style="white-space:pre" aria-label="KOMPASS"/>
 </g>
 <g transform="matrix(.45868 -.053957 .053957 .45868 33.908 14.39)" stroke-linecap="square" stroke-width="4">
  <path d="m93.167 68.845 11.651-4.5188c3.016-1.0855 4.1889 0.24292 2.9682 3.0125l-4.5188 11.962c-1.0154 2.3221-0.61725 1.8046-3.6328 3.0568l-10.854 4.2087c-3.2082 1.1594-4.3703-0.2277-3.1011-3.4555l4.5188-11.386c0.86392-1.7903 0.95119-2.0956 2.9682-2.8796z" fill="#0070b8"/>
  <circle cx="96.755" cy="75.446" r="3.1027" fill="#fff"/>
 </g>
</svg>
